<svg width="185" height="35" viewBox="0 0 185 35" fill="none" xmlns="http://www.w3.org/2000/svg">
<path d="M20.575 7.9706V4.45573H12.8835V12.6951H4.64421V19.8441H12.314C14.6572 19.8441 19.1647 19.2095 22.9671 14.6261C22.2565 17.5822 18.8664 23.4458 10.9742 23.6302C10.9363 23.641 10.8983 23.641 10.8657 23.641H0.84729V8.89813H9.08661V0.658813H24.3719V7.9706H20.575Z" fill="#1A76D1"/>
<path d="M12.8857 24.6662L12.8857 28.1811L20.5772 28.1811L20.5772 19.9417L28.8165 19.9417L28.8165 12.7927L21.1467 12.7927C18.8035 12.7927 14.296 13.4273 10.4936 18.0107C11.2042 15.0546 14.5943 9.19103 22.4865 9.00661C22.5244 8.99576 22.5624 8.99576 22.595 8.99576L32.6134 8.99576L32.6134 23.7387L24.3741 23.7387L24.3741 31.978L9.08876 31.978L9.08876 24.6662L12.8857 24.6662Z" fill="#1A76D1"/>
<path d="M130.076 8.0459C131.581 8.0459 132.936 8.41149 134.14 9.14267C135.344 9.87386 136.28 10.9384 136.947 12.3362C137.635 13.7126 137.979 15.3362 137.979 17.2072C137.979 19.0782 137.635 20.7126 136.947 22.1104C136.28 23.4868 135.344 24.5405 134.14 25.2717C132.936 26.0029 131.581 26.3685 130.076 26.3685C128.57 26.3685 127.28 26.0136 126.205 25.304C125.151 24.5728 124.398 23.605 123.947 22.4007V34.6588H119.398V8.27171H123.947V11.9814C124.398 10.7771 125.151 9.82009 126.205 9.11042C127.28 8.40074 128.57 8.0459 130.076 8.0459ZM128.656 12.0136C127.28 12.0136 126.14 12.4868 125.237 13.433C124.355 14.3577 123.914 15.6158 123.914 17.2072C123.914 18.7771 124.355 20.0351 125.237 20.9814C126.14 21.9061 127.28 22.3685 128.656 22.3685C130.076 22.3685 131.215 21.9169 132.076 21.0136C132.936 20.0889 133.366 18.8201 133.366 17.2072C133.366 15.5943 132.936 14.3255 132.076 13.4007C131.215 12.476 130.076 12.0136 128.656 12.0136Z" fill="#2C2D3F"/>
<path d="M145.423 2.27171V26.1427H140.875V2.27171H145.423Z" fill="#2C2D3F"/>
<path d="M166.312 8.27171V26.1427H161.764V22.5298C161.291 23.7341 160.506 24.6803 159.409 25.3685C158.334 26.0352 157.087 26.3685 155.667 26.3685C153.603 26.3685 151.957 25.6911 150.732 24.3362C149.506 22.9814 148.893 21.0889 148.893 18.6588V8.27171H153.409V18.1427C153.409 19.562 153.775 20.6696 154.506 21.4653C155.237 22.2395 156.226 22.6265 157.474 22.6265C158.785 22.6265 159.828 22.2072 160.603 21.3685C161.377 20.5298 161.764 19.3255 161.764 17.7556V8.27171H166.312Z" fill="#2C2D3F"/>
<path d="M176.287 8.0459C178.459 8.0459 180.201 8.59429 181.512 9.69106C182.824 10.7878 183.641 12.2502 183.964 14.0782H179.706C179.534 13.2179 179.147 12.5298 178.545 12.0136C177.943 11.4975 177.158 11.2395 176.19 11.2395C175.416 11.2395 174.813 11.4222 174.383 11.7878C173.953 12.1534 173.738 12.6481 173.738 13.2717C173.738 13.7663 173.91 14.1642 174.254 14.4653C174.598 14.7663 175.029 15.0029 175.545 15.1749C176.061 15.347 176.803 15.5513 177.77 15.7878C179.125 16.0889 180.222 16.4115 181.061 16.7556C181.921 17.0782 182.652 17.605 183.254 18.3362C183.878 19.0459 184.19 20.0136 184.19 21.2395C184.19 22.7663 183.588 24.0029 182.383 24.9491C181.201 25.8954 179.598 26.3685 177.577 26.3685C175.254 26.3685 173.394 25.8524 171.996 24.8201C170.598 23.7663 169.749 22.2717 169.448 20.3362H173.803C173.91 21.2179 174.297 21.9169 174.964 22.433C175.631 22.9276 176.502 23.1749 177.577 23.1749C178.351 23.1749 178.943 22.9921 179.351 22.6265C179.76 22.2395 179.964 21.7448 179.964 21.1427C179.964 20.6265 179.781 20.2072 179.416 19.8846C179.072 19.562 178.631 19.3147 178.093 19.1427C177.577 18.9706 176.835 18.7663 175.867 18.5298C174.534 18.2287 173.448 17.9276 172.609 17.6265C171.792 17.304 171.082 16.7986 170.48 16.1104C169.9 15.4222 169.609 14.476 169.609 13.2717C169.609 11.7233 170.201 10.4653 171.383 9.49751C172.566 8.52977 174.201 8.0459 176.287 8.0459Z" fill="#2C2D3F"/>
<path d="M66.0726 3.62656V26.1427H61.5564V10.433L55.7822 26.1427H51.8468L46.0726 10.4975V26.1427H41.5242V3.62656H47.0403L53.879 20.562L60.5887 3.62656H66.0726Z" fill="#1A76D1"/>
<path d="M86.6749 16.5298C86.6749 16.9814 86.6211 17.4975 86.5136 18.0782H73.4168C73.4813 19.6696 73.9114 20.8416 74.7071 21.5943C75.5028 22.347 76.4921 22.7233 77.6749 22.7233C78.7286 22.7233 79.5996 22.4653 80.2878 21.9491C80.9975 21.433 81.4491 20.7341 81.6426 19.8524H86.4491C86.2125 21.0997 85.7071 22.218 84.9329 23.2072C84.1588 24.1965 83.1588 24.9706 81.9329 25.5298C80.7286 26.0889 79.3846 26.3685 77.9007 26.3685C76.1588 26.3685 74.6104 26.0029 73.2555 25.2717C71.9007 24.519 70.8469 23.4545 70.0942 22.0782C69.3415 20.7018 68.9652 19.0782 68.9652 17.2072C68.9652 15.3362 69.3415 13.7126 70.0942 12.3362C70.8469 10.9384 71.9007 9.87387 73.2555 9.14269C74.6104 8.4115 76.1588 8.04591 77.9007 8.04591C79.6641 8.04591 81.2018 8.4115 82.5136 9.14269C83.8469 9.87387 84.8684 10.8846 85.5781 12.1749C86.3093 13.4438 86.6749 14.8954 86.6749 16.5298ZM82.0942 16.0782C82.1588 14.6158 81.7717 13.5083 80.9329 12.7556C80.1157 12.0029 79.105 11.6266 77.9007 11.6266C76.6749 11.6266 75.6426 12.0029 74.8039 12.7556C73.9652 13.5083 73.5028 14.6158 73.4168 16.0782H82.0942Z" fill="#1A76D1"/>
<path d="M96.5811 8.04591C98.0865 8.04591 99.3661 8.40075 100.42 9.11043C101.495 9.82011 102.269 10.7771 102.742 11.9814V2.27172H107.259V26.1427H102.742V22.4008C102.269 23.6051 101.495 24.5728 100.42 25.304C99.3661 26.0137 98.0865 26.3685 96.5811 26.3685C95.0758 26.3685 93.7209 26.0029 92.5166 25.2717C91.3123 24.5405 90.3661 23.4868 89.6779 22.1104C89.0112 20.7126 88.6779 19.0782 88.6779 17.2072C88.6779 15.3362 89.0112 13.7126 89.6779 12.3362C90.3661 10.9384 91.3123 9.87387 92.5166 9.14269C93.7209 8.4115 95.0758 8.04591 96.5811 8.04591ZM98.0005 12.0137C96.5811 12.0137 95.4413 12.476 94.5811 13.4008C93.7209 14.3255 93.2908 15.5943 93.2908 17.2072C93.2908 18.8201 93.7209 20.0889 94.5811 21.0137C95.4413 21.9169 96.5811 22.3685 98.0005 22.3685C99.3768 22.3685 100.506 21.9061 101.388 20.9814C102.291 20.0352 102.742 18.7771 102.742 17.2072C102.742 15.6158 102.291 14.3577 101.388 13.433C100.506 12.4868 99.3768 12.0137 98.0005 12.0137Z" fill="#1A76D1"/>
<path d="M110.542 3.14268C110.542 2.4115 110.8 1.8201 111.316 1.36849C111.832 0.895373 112.51 0.658813 113.348 0.658813C114.187 0.658813 114.864 0.895373 115.381 1.36849C115.897 1.8201 116.155 2.4115 116.155 3.14268C116.155 3.85236 115.897 4.44376 115.381 4.91688C114.864 5.36849 114.187 5.5943 113.348 5.5943C112.51 5.5943 111.832 5.36849 111.316 4.91688C110.8 4.44376 110.542 3.85236 110.542 3.14268ZM115.606 8.27172V26.1427H111.058V8.27172H115.606Z" fill="#1A76D1"/>
</svg>
